# xmcd CD database file
#
# Track frame offsets:
#	150
#	58313
#	106914
#	225603
#
# Disc length: 3675 seconds
#
# Revision: 0
# Processed by: cddbd v1.5.1PL0 Copyright (c) Steve Scherf et al.
# Submitted via: CDex 1.51
#
DISCID=2e0e5904
DTITLE=Joshua Redman's Elastic Band - Live
DYEAR=2003
DGENRE=Jazz
TTITLE0=One More Once (Yahel)
TTITLE1=Shut Your Mouth (Yahel)
TTITLE2=Still Pushin' That Rock (Redman)
TTITLE3=Oumou (Yahel)
EXTD=YEAR: 2003
EXTT0=
EXTT1=
EXTT2=
EXTT3=
PLAYORDER=
